<svg xmlns="http://www.w3.org/2000/svg" xmlns:xlink="http://www.w3.org/1999/xlink" width="594.462" height="81.791" viewBox="0 0 594.462 81.791">
  <defs>
    <linearGradient id="linear-gradient" x1="0.922" y1="0.5" x2="0.114" y2="0.548" gradientUnits="objectBoundingBox">
      <stop offset="0" stop-color="#0b5ec3"/>
      <stop offset="1" stop-color="#01244d"/>
    </linearGradient>
    <linearGradient id="linear-gradient-2" x1="0.922" y1="0.5" x2="0.114" y2="0.548" gradientUnits="objectBoundingBox">
      <stop offset="0" stop-color="#022b5d"/>
      <stop offset="1" stop-color="#000913"/>
    </linearGradient>
  </defs>
  <g id="Group_45" data-name="Group 45" transform="translate(0.232 -3424.884)">
    <g id="Layer_2" data-name="Layer 2" transform="translate(211.768 3425.884)">
      <g id="Layer_1" data-name="Layer 1">
        <path id="Path_138" data-name="Path 138" d="M194.68,40.389,187.69,33.3h0L154.814,0H140.8l39.86,40.389Zm23.467,0-7-7.089h0L178.282,0H164.266l39.878,40.389Zm-70.408,0L140.768,33.3h0L107.861,0H93.845l39.86,40.389Zm23.467,0-6.99-7.089h0L131.347,0H117.331l39.89,40.389Zm-46.923,0L117.276,33.3h0L84.412,0H70.4L110.25,40.389Zm-70.408,0-7-7.089h0L14.016,0H0L39.86,40.389Zm46.923,0L93.809,33.3h0L60.938,0H46.923l39.86,40.389Zm-23.467,0L70.341,33.3h0L37.471,0H23.455l39.86,40.389Zm258.154,0L328.5,33.3h0L295.625,0H281.609l39.86,40.389Zm23.467,0L351.968,33.3h0L319.1,0H305.082l39.86,40.389Zm23.467,0L375.436,33.3h0L342.566,0H328.55l39.86,40.389Zm-117.337,0-6.99-7.089h0L225.222,0H211.207l39.86,40.389Zm-23.467,0-7-7.089h0L201.755,0H187.739L227.6,40.389Zm70.408,0-7-7.089h0L272.157,0H258.141l39.848,40.389Zm-23.467,0-7.02-7.089h0L248.69,0H234.674l39.86,40.389ZM157.221,40.4,117.361,80.79h14.016L171.237,40.4Zm117.343,0L234.7,80.79H248.72L288.58,40.4Zm23.467,0L258.172,80.79h14.016L312,40.4Zm-46.923,0L211.249,80.79h14.016L265.082,40.4ZM328.592,80.79h14.016L382.462,40.4H368.446ZM321.487,40.4,281.633,80.79h14.016L335.509,40.4Zm-93.845,0L187.788,80.79H201.8L241.664,40.4Zm117.349,0L305.131,80.79h14.016L359,40.4Zm-281.627,0L23.473,80.79H37.489L77.349,40.4Zm23.467,0L46.923,80.79H60.938L100.8,40.4Zm117.343,0L164.314,80.79H178.33L218.16,40.4Zm-93.845,0L70.469,80.79H84.485L124.345,40.4Zm-70.408,0L0,80.79H14.016L53.87,40.4Zm140.817,0L140.877,80.79h14.016L194.753,40.4Zm-46.923,0L93.961,80.79h14.016L147.837,40.4Z" fill="url(#linear-gradient)"/>
      </g>
    </g>
    <g id="Layer_2-2" data-name="Layer 2" transform="translate(-0.232 3424.884)">
      <g id="Layer_1-2" data-name="Layer 1">
        <path id="Path_138-2" data-name="Path 138" d="M194.68,40.389,187.69,33.3h0L154.814,0H140.8l39.86,40.389Zm23.467,0-7-7.089h0L178.282,0H164.266l39.878,40.389Zm-70.408,0L140.768,33.3h0L107.861,0H93.845l39.86,40.389Zm23.467,0-6.99-7.089h0L131.347,0H117.331l39.89,40.389Zm-46.923,0L117.276,33.3h0L84.412,0H70.4L110.25,40.389Zm-70.408,0-7-7.089h0L14.016,0H0L39.86,40.389Zm46.923,0L93.809,33.3h0L60.938,0H46.923l39.86,40.389Zm-23.467,0L70.341,33.3h0L37.471,0H23.455l39.86,40.389Zm258.154,0L328.5,33.3h0L295.625,0H281.609l39.86,40.389Zm23.467,0L351.968,33.3h0L319.1,0H305.082l39.86,40.389Zm23.467,0L375.436,33.3h0L342.566,0H328.55l39.86,40.389Zm-117.337,0-6.99-7.089h0L225.222,0H211.207l39.86,40.389Zm-23.467,0-7-7.089h0L201.755,0H187.739L227.6,40.389Zm70.408,0-7-7.089h0L272.157,0H258.141l39.848,40.389Zm-23.467,0-7.02-7.089h0L248.69,0H234.674l39.86,40.389ZM157.221,40.4,117.361,80.79h14.016L171.237,40.4Zm117.343,0L234.7,80.79H248.72L288.58,40.4Zm23.467,0L258.172,80.79h14.016L312,40.4Zm-46.923,0L211.249,80.79h14.016L265.082,40.4ZM328.592,80.79h14.016L382.462,40.4H368.446ZM321.487,40.4,281.633,80.79h14.016L335.509,40.4Zm-93.845,0L187.788,80.79H201.8L241.664,40.4Zm117.349,0L305.131,80.79h14.016L359,40.4Zm-281.627,0L23.473,80.79H37.489L77.349,40.4Zm23.467,0L46.923,80.79H60.938L100.8,40.4Zm117.343,0L164.314,80.79H178.33L218.16,40.4Zm-93.845,0L70.469,80.79H84.485L124.345,40.4Zm-70.408,0L0,80.79H14.016L53.87,40.4Zm140.817,0L140.877,80.79h14.016L194.753,40.4Zm-46.923,0L93.961,80.79h14.016L147.837,40.4Z" fill="url(#linear-gradient-2)"/>
      </g>
    </g>
  </g>
</svg>
